<?xml version="1.0" standalone="no"?>
<!DOCTYPE svg PUBLIC "-//W3C//DTD SVG 20010904//EN"
 "http://www.w3.org/TR/2001/REC-SVG-20010904/DTD/svg10.dtd">
<svg version="1.0" xmlns="http://www.w3.org/2000/svg"
 width="1333.000000pt" height="2000.000000pt" viewBox="0 0 1333.000000 2000.000000"
 preserveAspectRatio="xMidYMid meet">

<g transform="translate(0.000000,2000.000000) scale(0.100000,-0.100000)"
fill="#000000" stroke="none">
<path d="M6395 14200 c3 -5 1 -11 -4 -11 -6 -1 -15 -3 -21 -4 -5 -1 -21 -3
-35 -4 -13 0 -29 -7 -35 -13 -45 -53 -72 -81 -66 -68 5 9 2 8 -7 -3 -11 -12
-22 -15 -46 -11 -30 6 -31 5 -31 -25 0 -21 -4 -30 -11 -25 -6 3 -15 0 -20 -7
-6 -10 -9 -11 -9 -1 0 6 -8 12 -18 12 -22 0 -57 -34 -49 -47 3 -5 -15 -15 -41
-22 -96 -26 -181 -61 -203 -84 -8 -7 -28 -20 -44 -28 -17 -8 -30 -21 -30 -29
0 -8 -15 -28 -32 -44 -30 -26 -46 -56 -23 -41 6 3 10 1 10 -4 0 -6 -6 -11 -14
-11 -8 0 -31 -21 -53 -48 -40 -50 -44 -55 -98 -158 -20 -37 -53 -92 -75 -123
-40 -57 -58 -110 -21 -62 21 27 51 36 51 16 0 -8 -15 -26 -33 -42 -19 -15 -40
-44 -47 -63 -8 -19 -20 -39 -27 -43 -18 -11 -16 -27 4 -27 26 0 91 51 186 146
34 35 47 43 47 30 0 -21 -143 -166 -164 -166 -8 0 -22 -7 -31 -17 -9 -9 -30
-16 -46 -16 -29 0 -38 -10 -19 -22 5 -3 -6 -20 -26 -37 -19 -17 -39 -39 -45
-50 -9 -17 -7 -18 18 -13 l28 6 -30 -17 c-36 -21 -60 -48 -82 -94 -9 -19 -23
-43 -32 -53 -12 -15 -13 -20 -2 -26 8 -5 11 -13 7 -19 -3 -6 4 -18 16 -28 14
-10 16 -14 6 -11 -9 3 -32 9 -51 12 -30 6 -35 4 -34 -12 1 -10 -4 -17 -11 -15
-8 1 -11 -2 -7 -8 7 -11 -31 -146 -49 -171 -6 -9 -15 -16 -19 -15 -5 0 -16
-12 -25 -29 -9 -16 -27 -41 -39 -54 -13 -14 -24 -30 -25 -36 0 -5 -2 -14 -3
-20 -4 -27 -17 -55 -26 -55 -6 0 -7 9 -3 23 7 22 6 22 -15 3 -23 -21 -27 -16
-10 15 5 11 12 43 15 72 4 51 4 52 -11 23 -8 -15 -15 -37 -15 -48 0 -10 -11
-58 -24 -106 -35 -124 -48 -226 -52 -392 -2 -80 -5 -170 -8 -201 -3 -31 1 -77
8 -105 9 -35 12 -99 9 -216 -3 -135 -1 -167 10 -171 8 -3 17 -27 21 -58 6 -45
9 -50 21 -38 8 8 15 32 16 54 4 103 14 106 19 5 4 -73 2 -119 -7 -150 -8 -25
-16 -70 -18 -100 -3 -30 -9 -74 -15 -96 -10 -45 -60 -166 -71 -174 -3 -3 -9
-23 -13 -45 -4 -22 -16 -56 -25 -75 -10 -19 -26 -52 -36 -72 -29 -60 -130
-154 -208 -193 -61 -31 -79 -35 -146 -35 -87 0 -170 19 -227 51 l-39 22 37
-36 c20 -19 67 -49 103 -66 36 -17 65 -37 65 -44 0 -23 -79 -93 -158 -140 -88
-52 -173 -92 -355 -167 -143 -59 -217 -101 -293 -166 -69 -58 -110 -116 -183
-255 -85 -162 -107 -246 -170 -654 -6 -38 -20 -108 -31 -155 -14 -57 -25 -164
-35 -320 -8 -129 -20 -281 -26 -338 -9 -88 -9 -113 6 -180 29 -131 79 -256
129 -326 169 -237 332 -423 537 -611 90 -82 189 -174 219 -203 79 -76 302
-239 475 -348 533 -335 1127 -540 1795 -621 178 -22 777 -26 875 -6 33 7 103
17 155 23 224 27 565 106 800 187 74 25 138 48 142 52 9 8 -51 152 -96 228
-49 83 -80 118 -139 158 l-49 33 23 16 c39 24 95 46 245 92 147 44 292 64 369
50 61 -12 183 -151 230 -262 8 -20 18 -34 23 -32 4 1 62 36 127 76 289 176
542 380 806 649 194 197 262 279 252 298 -5 8 -50 59 -99 113 -106 114 -162
194 -199 283 -45 107 -46 118 -29 181 24 83 15 196 -19 268 -40 83 -70 134
-100 170 -15 17 -27 38 -27 46 0 8 -5 14 -11 14 -5 0 -7 5 -4 10 7 12 -23 96
-64 178 -15 31 -41 98 -55 147 -42 140 -56 177 -83 217 -14 20 -23 43 -20 50
4 9 6 7 6 -4 1 -9 5 -19 11 -23 5 -3 5 7 -1 25 -6 17 -16 27 -22 23 -6 -4 -8
0 -4 10 20 53 -239 532 -392 724 -46 57 -270 249 -307 263 -61 24 -120 -18
-189 -133 -22 -37 -68 -98 -103 -135 -52 -55 -62 -72 -58 -93 6 -34 -21 -52
-53 -35 l-22 12 21 27 c12 15 25 25 30 22 4 -3 13 1 19 9 9 10 8 15 -4 20 -19
7 -19 30 1 61 9 13 13 28 10 33 -3 4 1 26 9 48 18 51 18 74 0 74 -8 0 -14 -6
-12 -12 1 -7 -3 -12 -10 -11 -8 2 -10 -4 -6 -14 4 -9 -1 -21 -11 -29 -10 -7
-15 -18 -11 -24 3 -6 1 -9 -6 -8 -14 3 -64 -87 -64 -116 0 -10 -9 -24 -20 -30
-11 -6 -30 -19 -43 -28 -16 -12 -33 -15 -54 -11 -19 4 -29 2 -25 -4 3 -5 -10
-15 -30 -22 -19 -7 -54 -26 -76 -41 -58 -39 -127 -57 -142 -37 -7 10 -21 13
-40 10 l-30 -5 33 21 c39 25 42 26 43 4 0 -15 2 -14 9 3 8 20 21 32 86 78 23
17 25 20 10 28 -11 6 -22 6 -29 -1 -20 -16 -67 -31 -67 -22 0 5 11 12 24 15
13 3 38 19 56 36 18 16 38 30 46 30 14 0 55 37 92 84 12 16 22 24 22 18 0 -6
-4 -14 -10 -17 -5 -3 -10 -11 -10 -17 0 -15 58 49 65 73 4 10 11 19 16 19 6 0
7 -4 4 -10 -3 -5 -1 -10 4 -10 6 0 11 5 11 11 0 5 5 7 10 4 15 -9 40 14 40 36
0 11 4 19 9 19 5 0 13 10 16 23 4 12 15 40 25 62 27 61 42 114 36 124 -4 5 0
11 6 13 9 3 14 39 15 129 1 68 2 158 3 199 1 42 -6 101 -14 133 -19 69 -21
101 -5 91 8 -5 10 6 7 34 -2 28 1 43 10 47 14 5 17 -2 27 -57 4 -24 11 -38 20
-38 20 0 19 12 -9 109 -14 46 -22 90 -19 97 6 16 -15 180 -27 209 -5 11 -16
53 -25 94 -9 41 -21 83 -26 93 -6 10 -12 47 -13 81 -2 34 -10 85 -19 112 -34
114 -45 181 -28 171 10 -6 -7 73 -19 89 -4 6 -11 37 -15 70 -13 115 -36 240
-51 282 -9 24 -17 60 -19 82 -1 21 -6 44 -9 50 -4 6 -4 20 -1 31 4 13 -5 45
-23 85 -21 44 -34 93 -42 160 -12 89 -29 135 -31 83 -1 -13 -7 4 -14 37 -6 33
-23 94 -37 135 -14 41 -29 91 -32 110 -4 19 -11 44 -16 55 -27 63 -62 134 -80
160 -11 17 -22 37 -25 45 -3 8 -12 27 -20 43 -8 15 -11 27 -8 27 13 0 55 -55
83 -108 17 -31 38 -70 48 -87 10 -16 24 -50 31 -75 36 -130 105 -336 114 -341
5 -4 11 -22 13 -40 11 -109 26 -205 33 -214 12 -15 38 -123 46 -185 7 -59 36
-179 53 -220 6 -14 16 -65 22 -115 11 -87 20 -118 33 -116 22 3 29 -1 24 -13
-3 -8 -3 -16 1 -18 16 -7 66 -125 65 -153 l-2 -30 9 28 c6 20 3 47 -9 90 -10
34 -29 100 -41 147 -12 47 -27 96 -32 110 -6 14 -14 48 -18 75 -4 28 -16 84
-28 125 -11 41 -23 96 -27 122 -5 40 -4 47 9 42 12 -4 13 1 6 32 -5 21 -16 41
-24 46 -9 5 -16 21 -16 35 0 15 -4 40 -10 57 -5 17 -31 98 -56 179 -26 82 -50
144 -53 139 -3 -6 -19 30 -34 79 -15 49 -32 89 -37 89 -6 0 -10 8 -10 18 0 9
-11 37 -25 61 -14 23 -25 49 -25 57 0 13 -33 93 -72 171 -11 23 -31 52 -44 64
-13 12 -24 30 -24 39 0 9 -3 20 -7 24 -4 4 -8 13 -9 19 0 7 -2 20 -2 29 -1 9
-8 23 -15 30 -7 7 -27 33 -44 59 -67 97 -202 206 -328 263 -107 49 -150 71
-160 82 -5 7 -26 15 -45 18 -19 3 -47 12 -61 20 -30 15 -186 20 -223 6 -19 -7
-24 -6 -20 4 4 11 -3 12 -34 6 -21 -3 -44 -10 -50 -14 -8 -5 -10 -2 -5 10 5
13 2 15 -18 9 -33 -10 -89 -45 -89 -55 0 -5 -27 -28 -60 -51 -33 -23 -60 -45
-60 -48 0 -3 -15 -12 -32 -20 -18 -8 -46 -29 -61 -48 -16 -18 -38 -33 -49 -33
-17 0 -20 -5 -16 -30 3 -16 1 -30 -4 -30 -4 0 -8 -12 -8 -26 0 -19 4 -25 15
-20 9 3 15 0 15 -9 0 -9 6 -12 15 -9 8 4 15 13 15 21 0 10 8 13 29 10 20 -3
31 0 35 9 6 14 36 20 36 7 0 -12 62 -46 88 -49 14 -2 22 3 22 13 0 9 6 13 15
9 9 -3 18 1 22 9 7 20 33 0 33 -25 0 -10 7 -24 16 -31 15 -12 16 -11 10 11
l-8 25 16 -22 c10 -13 23 -20 31 -16 9 3 22 -1 31 -8 9 -7 31 -13 49 -14 19 0
36 -3 40 -6 3 -4 19 -5 35 -3 17 2 30 -1 30 -6 0 -6 7 -10 15 -10 8 0 15 -5
15 -11 0 -5 8 -9 18 -8 19 3 70 -19 90 -38 8 -7 18 -11 23 -7 6 3 16 0 24 -6
8 -7 31 -10 50 -8 26 3 35 0 36 -12 0 -10 2 -11 6 -2 2 6 12 12 20 12 8 0 13
-6 10 -12 -3 -9 6 -14 25 -15 17 -1 40 -13 54 -28 12 -14 27 -25 31 -25 5 0
17 -17 28 -37 24 -44 40 -61 103 -110 48 -36 58 -52 137 -200 43 -80 81 -215
90 -323 2 -19 6 -46 9 -60 3 -14 10 -53 16 -87 12 -72 32 -124 56 -147 9 -10
14 -20 10 -23 -3 -3 -45 -8 -93 -10 -161 -8 -196 -15 -210 -43 -7 -14 -22 -27
-34 -30 -24 -6 -47 -35 -37 -46 4 -3 21 -1 39 5 37 13 234 14 297 2 57 -11 72
-26 49 -49 -15 -14 -31 -16 -100 -12 -167 9 -212 5 -274 -26 -41 -21 -58 -35
-58 -49 -1 -11 -7 -32 -15 -48 -7 -15 -11 -29 -9 -31 8 -7 160 -56 173 -56 7
0 19 -7 26 -15 7 -8 16 -13 20 -10 4 3 21 -2 36 -10 16 -8 33 -15 38 -15 17 0
76 -51 76 -65 0 -7 9 -17 20 -20 32 -10 65 -72 89 -165 26 -105 26 -150 0
-261 -20 -86 -69 -184 -116 -233 -12 -12 -34 -49 -49 -82 -15 -32 -40 -77 -54
-99 -15 -22 -48 -72 -73 -111 -29 -44 -130 -156 -261 -288 -277 -279 -262
-272 -502 -262 -145 5 -173 4 -168 -8 21 -56 -198 5 -333 93 -54 35 -238 199
-256 228 -4 7 -13 13 -18 13 -16 0 59 -114 132 -200 25 -30 49 -65 53 -76 4
-13 18 -24 36 -28 17 -3 30 -11 30 -18 1 -19 78 -71 96 -64 8 3 13 2 10 -3 -3
-5 4 -9 17 -9 22 0 182 -53 194 -65 3 -4 0 -13 -7 -22 -16 -19 -6 -20 85 0 81
17 171 20 180 5 3 -5 14 -10 24 -10 11 0 29 -8 41 -18 l22 -18 -21 -131 c-23
-131 -26 -204 -20 -390 2 -72 -1 -106 -10 -117 -7 -8 -10 -19 -7 -25 3 -5 -6
-14 -21 -19 -27 -10 -27 -10 12 -11 36 -1 60 -12 117 -53 15 -11 25 -9 63 12
l44 24 93 -47 c95 -48 138 -58 138 -33 0 7 -6 32 -14 54 -8 22 -17 53 -20 69
-2 15 -14 64 -26 108 -35 127 -34 121 -20 109 6 -7 44 -92 84 -190 l72 -179
74 -11 c87 -13 110 -21 110 -39 0 -7 15 -44 33 -81 l32 -69 6 -265 c4 -214 9
-275 23 -319 16 -49 74 -160 286 -551 77 -142 145 -303 183 -435 31 -109 60
-279 55 -330 -5 -57 -24 -54 -32 5 -4 29 -15 59 -25 69 -14 14 -16 22 -8 30 8
8 7 11 -3 10 -32 -1 -49 -14 -40 -28 11 -19 -5 -51 -26 -51 -8 0 -17 -13 -21
-31 l-6 -31 -13 32 c-17 38 -17 40 -5 40 5 0 11 -8 13 -17 3 -17 4 -17 11 0 5
14 2 20 -14 24 -14 4 -19 12 -16 24 3 11 2 17 -2 14 -11 -6 -31 40 -31 70 0
14 -4 25 -10 25 -5 0 -10 6 -10 14 0 8 -9 30 -19 48 -11 18 -27 54 -36 80 -20
60 -81 190 -138 293 -147 266 -189 346 -186 349 9 8 89 13 94 6 2 -4 16 -5 30
-2 17 3 25 11 25 26 0 29 -15 52 -24 37 -5 -7 -42 -11 -97 -11 -57 0 -100 -5
-117 -14 -41 -21 -181 -37 -337 -39 -119 -2 -145 1 -167 15 -15 10 -33 15 -41
12 -8 -3 -18 0 -23 7 -5 8 -2 11 8 6 10 -3 19 2 25 16 8 17 6 26 -9 41 -14 15
-15 22 -6 27 9 6 8 10 -5 15 -26 10 -21 34 8 34 14 0 25 5 25 10 0 6 -4 10
-10 10 -5 0 -7 7 -4 15 4 8 1 15 -5 15 -6 0 -11 -5 -11 -11 0 -5 -5 -7 -10 -4
-8 5 -8 11 0 20 7 8 7 15 1 19 -5 3 -11 0 -14 -6 -3 -8 -9 -2 -15 13 -6 15
-23 31 -41 37 -31 11 -56 45 -46 63 8 12 -14 41 -25 34 -4 -3 -13 10 -20 28
-29 77 -29 77 -61 77 -23 0 -30 4 -26 15 4 8 2 17 -4 20 -5 4 -7 11 -4 16 3 5
-2 6 -12 2 -15 -5 -16 -3 -5 8 6 7 12 21 12 31 0 34 85 98 131 98 49 0 55 15
25 55 -28 36 -29 37 -75 29 -69 -13 -151 -10 -161 6 -7 11 -7 53 -1 91 5 32
204 192 254 204 14 4 32 14 38 22 11 13 8 14 -24 8 -56 -11 -82 0 -104 42 -78
149 -117 218 -215 377 -61 100 -116 190 -122 201 -6 11 -60 93 -119 183 -59
89 -110 169 -113 177 -10 26 11 16 34 -15 13 -16 27 -30 32 -30 6 0 24 -15 40
-32 l29 -33 2 30 c1 17 2 37 1 46 -1 17 -66 89 -80 89 -5 0 -19 14 -32 30 -13
17 -28 30 -35 30 -12 0 -28 17 -85 90 -46 59 -40 52 -117 155 -37 50 -105 135
-153 190 -113 133 -172 216 -215 306 -36 77 -35 71 -105 543 -10 70 -20 129
-22 131 -2 1 -22 6 -45 10 -39 6 -43 5 -48 -17 -6 -28 -2 -89 7 -103 4 -6 3
-17 -3 -25 -15 -24 -10 -38 13 -42 12 -2 23 -9 26 -16 2 -7 -2 -13 -9 -11 -37
5 -59 -2 -59 -18 -1 -17 -1 -17 -14 0 -18 24 -26 21 -26 -9 0 -14 -4 -23 -10
-19 -16 10 -11 36 13 69 23 30 47 121 47 177 0 23 -8 33 -37 48 -49 26 -68 54
-92 137 -11 38 -32 107 -46 153 -26 86 -30 127 -17 148 5 9 14 -5 26 -37 10
-28 21 -50 25 -50 3 0 5 40 3 88 -4 108 7 124 63 98 19 -9 35 -23 35 -31 0
-17 16 -20 25 -5 11 18 54 11 65 -10 6 -11 17 -20 24 -20 15 0 50 37 59 62 3
9 23 22 44 28 23 7 51 27 71 51 34 41 114 219 111 248 -6 46 23 72 126 116 75
32 155 88 155 109 0 7 9 21 20 31 15 13 17 21 9 26 -9 5 -7 15 7 36 10 15 17
32 16 37 -2 5 3 13 10 18 9 6 10 10 2 16 -7 4 -8 16 -4 27 5 13 2 24 -9 31
-13 10 -10 14 21 27 41 17 64 44 29 34 l-21 -5 22 41 c12 23 29 50 37 60 13
15 12 17 -8 17 -12 0 -19 4 -16 10 3 6 0 10 -7 10 -7 0 12 23 42 50 48 44 52
50 31 50 -20 0 -22 2 -11 15 7 9 10 18 7 22 -4 3 -1 13 6 21 6 8 16 29 22 46
8 23 17 32 38 34 15 2 25 8 21 13 -3 5 -10 7 -15 4 -5 -4 -9 -1 -9 4 0 6 10
12 23 12 18 1 16 3 -8 9 -16 4 -22 8 -12 9 16 1 22 16 19 54 -2 14 3 17 17 12
14 -4 20 1 25 21 8 30 -8 56 -30 47 -7 -3 -17 2 -20 11 -3 9 -14 16 -24 16
-19 0 -30 32 -27 82 3 43 87 95 87 53 0 -8 5 -15 10 -15 6 0 10 -13 10 -30 0
-32 8 -37 29 -17 15 13 14 10 -5 -37 -6 -16 -4 -16 19 4 14 12 23 28 21 34 -7
17 33 56 57 56 11 0 36 12 55 26 19 15 34 23 34 19 0 -4 6 -3 13 2 6 6 19 10
28 10 9 0 34 8 54 17 21 10 48 19 60 20 13 0 22 3 20 6 -2 3 36 7 83 8 89 3
222 19 231 27 12 13 -18 19 -105 21 -52 1 -98 5 -101 8 -4 3 3 6 13 6 11 0 25
5 30 10 8 8 36 8 92 1 64 -8 88 -7 113 3 36 15 31 21 -26 31 -22 4 -47 14 -56
22 -13 11 -42 14 -113 12 l-96 -2 -45 51 c-37 41 -51 50 -78 50 -18 0 -51 9
-73 21 -42 23 -59 27 -49 11z m19 -61 c9 -10 -15 -49 -39 -65 -24 -16 -26 -16
-40 2 -15 18 -16 18 -35 -5 -11 -13 -20 -19 -20 -13 0 6 11 19 25 30 14 11 25
27 25 35 0 8 6 17 13 20 13 5 66 2 71 -4z m-84 -92 c0 -2 -10 -12 -21 -23 -22
-19 -22 -19 -10 4 10 18 31 31 31 19z m330 -17 c0 -5 13 -5 30 0 17 5 32 5 35
0 3 -5 -16 -12 -42 -15 -27 -4 -78 -15 -115 -26 -36 -10 -75 -19 -85 -19 -10
0 -27 -6 -38 -13 -11 -8 -39 -14 -62 -16 -23 -1 -59 -9 -80 -18 l-38 -15 19
21 c11 11 24 21 31 21 6 0 50 20 98 45 48 25 96 45 105 45 15 0 15 -2 2 -10
-20 -13 -5 -12 55 4 49 13 85 11 85 -4z m-510 -36 c0 -8 -4 -12 -10 -9 -5 3
-10 10 -10 16 0 5 5 9 10 9 6 0 10 -7 10 -16z m116 4 c4 -7 3 -8 -4 -4 -8 4
-12 0 -12 -11 -1 -25 -27 -58 -32 -41 -3 7 4 25 15 41 24 31 23 31 33 15z
m-56 -77 c0 -5 -7 -12 -16 -15 -24 -9 -28 -7 -14 9 14 17 30 20 30 6z m465
-105 c-16 -7 -34 -11 -40 -8 -5 4 1 9 15 13 42 12 57 9 25 -5z m-65 -16 c-8
-5 -17 -7 -19 -4 -3 3 1 9 9 14 8 5 17 7 19 4 3 -3 -1 -9 -9 -14z m-90 -160
c0 -5 -5 -10 -11 -10 -5 0 -7 5 -4 10 3 6 8 10 11 10 2 0 4 -4 4 -10z m-889
-113 c-10 -9 -11 -8 -5 6 3 10 9 15 12 12 3 -3 0 -11 -7 -18z m1839 -42 c19
-21 30 -36 24 -34 -14 5 -94 77 -94 84 0 12 36 -15 70 -50z m-54 -67 c5 -7 3
-8 -6 -3 -10 6 -12 4 -6 -11 5 -14 4 -16 -5 -7 -6 6 -8 16 -5 22 9 14 13 14
22 -1z m134 -13 c20 -24 6 -28 -15 -5 -10 11 -13 20 -8 20 6 0 16 -7 23 -15z
m-87 -34 c14 -17 28 -27 32 -23 5 4 5 1 1 -5 -4 -8 -2 -13 5 -13 7 0 10 -3 7
-6 -9 -8 -50 15 -70 40 -36 44 -12 51 25 7z m135 -46 c-7 -8 -38 23 -38 38 0
6 10 2 22 -10 12 -13 19 -25 16 -28z m-74 -31 c3 -8 2 -12 -4 -9 -6 3 -10 10
-10 16 0 14 7 11 14 -7z m-60 -90 c15 -28 20 -41 10 -33 -18 15 -61 94 -46 85
6 -3 22 -27 36 -52z m-1824 6 c0 -5 -8 -10 -17 -10 -15 0 -16 2 -3 10 19 12
20 12 20 0z m-70 -70 c12 -8 11 -10 -7 -10 -13 0 -23 -4 -23 -10 0 -5 -5 -10
-11 -10 -6 0 -25 -11 -43 -25 -18 -14 -40 -25 -49 -25 -10 0 -17 -7 -17 -15 0
-9 -9 -15 -21 -15 -30 0 -12 20 70 75 70 48 77 50 101 35z m-220 -135 c-9 -10
-9 -15 -1 -15 6 0 11 -4 11 -9 0 -12 -43 -19 -66 -10 -17 7 -17 8 5 8 16 1 21
6 18 15 -7 18 1 26 26 26 16 0 17 -3 7 -15z m77 -1 c-3 -3 -12 -4 -19 -1 -8 3
-5 6 6 6 11 1 17 -2 13 -5z m-71 -59 c-11 -8 -22 -12 -25 -9 -6 6 19 24 34 24
6 -1 1 -7 -9 -15z m2384 -66 c20 -56 21 -85 1 -63 -8 9 -51 125 -51 139 0 23
30 -24 50 -76z m97 -31 c-3 -8 -6 -5 -6 6 -1 11 2 17 5 13 3 -3 4 -12 1 -19z
m-2557 -34 c0 -2 -9 -4 -20 -4 -11 0 -20 4 -20 9 0 5 9 7 20 4 11 -3 20 -7 20
-9z m100 -35 c9 -5 -13 -6 -55 -3 -38 4 -73 10 -78 13 -11 10 115 0 133 -10z
m2413 -84 c4 -25 4 -33 -2 -20 -4 11 -11 38 -14 60 -4 25 -4 33 2 20 4 -11 11
-38 14 -60z m-2753 -239 c0 -2 -7 -9 -15 -16 -13 -11 -14 -10 -9 4 5 14 24 23
24 12z m-165 -218 c-43 -75 -40 -40 8 82 9 25 9 25 19 3 8 -17 3 -33 -27 -85z
m392 78 c12 -11 -7 -20 -57 -26 -47 -6 -64 0 -40 15 6 4 8 10 6 14 -6 9 82 7
91 -3z m-32 -46 c3 -5 -1 -10 -10 -10 -9 0 -13 5 -10 10 3 6 8 10 10 10 2 0 7
-4 10 -10z m2642 -152 c-2 -18 -4 -4 -4 32 0 36 2 50 4 33 2 -18 2 -48 0 -65z
m-3004 -38 c-3 -12 -8 -19 -11 -16 -5 6 5 36 12 36 2 0 2 -9 -1 -20z m3041
-63 c10 -81 16 -152 16 -212 0 -39 3 -55 9 -46 11 18 25 -140 19 -209 -3 -27
-2 -51 2 -52 12 -5 39 -265 29 -276 -4 -4 -3 -52 2 -107 9 -98 3 -551 -8 -590
-3 -11 -10 -23 -15 -26 -6 -4 -13 -37 -16 -75 -5 -59 -7 -65 -14 -39 -7 29 0
106 22 225 11 59 14 266 5 314 -3 16 -7 117 -9 225 -2 114 -9 212 -15 234 -7
22 -14 37 -16 35 -2 -1 0 -32 3 -68 4 -36 4 -85 1 -110 l-6 -45 -1 38 c-1 25
-6 36 -13 32 -7 -5 -10 16 -9 66 1 41 -2 128 -6 194 -3 66 -3 117 1 113 4 -4
7 -46 6 -93 -1 -47 3 -85 8 -85 5 0 8 44 7 98 0 58 -5 96 -11 95 -6 -1 -11 76
-13 209 -1 132 1 207 7 203 6 -3 12 -24 15 -48z m-494 -27 c0 -5 -7 -10 -15
-10 -8 0 -15 5 -15 10 0 6 7 10 15 10 8 0 15 -4 15 -10z m113 -1 c29 -16 37
-28 37 -60 0 -36 -21 -51 -67 -47 -41 3 -40 1 -27 81 7 39 20 45 57 26z m280
-314 c-3 -66 -5 -173 -5 -237 1 -65 -3 -118 -7 -118 -5 0 -9 17 -8 38 0 20 0
96 -1 167 0 118 2 207 8 305 l2 35 9 -35 c5 -19 6 -89 2 -155z m315 60 c-3 -3
-9 2 -12 12 -6 14 -5 15 5 6 7 -7 10 -15 7 -18z m-2806 -290 c0 -19 1 -40 2
-47 1 -6 -5 -13 -11 -15 -9 -3 -13 7 -13 31 0 19 -4 38 -10 41 -17 10 -11 25
10 25 16 0 20 -7 22 -35z m-54 -60 c6 -14 15 -24 19 -23 5 2 9 -1 11 -7 1 -5
-9 -11 -23 -13 -33 -4 -32 -28 1 -36 24 -6 25 -10 23 -70 -2 -49 -5 -63 -15
-59 -18 7 -23 -9 -27 -84 -2 -47 -8 -66 -21 -76 -16 -11 -18 -22 -12 -60 7
-49 -7 -93 -26 -81 -6 4 -8 27 -5 61 3 30 1 67 -4 81 -13 34 -22 153 -12 151
21 -4 25 2 10 14 -25 18 -35 135 -13 143 9 4 23 1 31 -6 22 -19 29 -6 16 31
-18 53 24 84 47 34z m2539 -137 c-2 -13 -4 -5 -4 17 -1 22 1 32 4 23 2 -10 2
-28 0 -40z m320 0 c-3 -8 -6 -5 -6 6 -1 11 2 17 5 13 3 -3 4 -12 1 -19z m-355
-174 l-10 -49 -1 56 c0 31 2 78 7 105 l7 49 3 -56 c2 -31 -1 -78 -6 -105z
m-2775 124 c-3 -8 -6 -5 -6 6 -1 11 2 17 5 13 3 -3 4 -12 1 -19z m2895 -198
c1 -74 4 -121 7 -105 4 17 11 28 16 25 19 -10 5 -171 -25 -285 -16 -60 -32
-130 -35 -155 -19 -121 -119 -321 -207 -416 -34 -36 -105 -94 -160 -129 -54
-36 -98 -69 -98 -74 0 -9 -46 -27 -85 -33 -11 -2 -22 -6 -25 -9 -3 -4 -16 -9
-30 -13 -20 -6 -15 2 26 41 108 103 197 182 211 187 8 3 12 10 9 14 -3 5 9 25
26 46 16 20 28 39 25 42 -3 3 -10 -4 -17 -15 -6 -12 -19 -21 -30 -21 -10 0
-27 -10 -37 -23 -51 -63 -313 -221 -328 -197 -6 9 38 40 102 74 48 24 191 161
251 240 55 72 130 215 157 301 27 83 75 278 75 303 0 12 5 22 10 22 6 0 10 10
10 23 0 31 28 113 44 126 9 8 11 -2 6 -42 -6 -59 2 -131 12 -106 3 8 4 27 1
41 -3 15 0 34 6 45 10 17 10 17 11 -1 0 -16 2 -17 16 -5 11 9 14 22 10 41 -3
15 -1 28 4 28 6 0 10 7 10 15 0 8 -4 15 -10 15 -5 0 -10 7 -10 15 0 8 5 15 10
15 6 0 10 28 10 64 0 35 3 72 7 82 13 35 24 -37 25 -176z m38 -50 c0 -13 -1
-13 -10 0 -5 8 -10 22 -10 30 0 13 1 13 10 0 5 -8 10 -22 10 -30z m-2486 -22
c33 -59 89 -138 97 -138 5 0 11 -15 15 -34 3 -19 12 -37 20 -40 8 -3 14 -12
14 -21 0 -8 5 -15 11 -15 5 0 7 -4 4 -10 -3 -5 -1 -10 6 -10 8 0 8 -4 1 -12
-13 -17 -6 -52 17 -97 11 -20 22 -48 25 -63 4 -16 12 -27 18 -25 7 1 14 -7 16
-18 2 -11 9 -26 15 -33 5 -7 11 -35 12 -63 2 -29 9 -57 19 -68 9 -10 16 -21
16 -26 0 -12 103 -119 122 -127 10 -4 18 -14 18 -22 0 -9 7 -12 20 -9 16 4 20
0 20 -20 0 -14 7 -27 15 -31 8 -3 15 -12 15 -21 0 -8 5 -15 10 -15 6 0 10 -8
10 -17 0 -9 3 -13 6 -10 9 8 52 -41 60 -68 14 -46 40 -95 52 -95 6 0 12 -7 12
-15 0 -9 7 -18 15 -21 8 -4 15 -13 15 -22 0 -16 28 -52 40 -52 5 0 7 11 6 25
0 14 -7 25 -13 25 -7 0 -13 7 -13 16 0 8 -7 22 -15 30 -8 9 -15 24 -15 35 0
10 -4 19 -10 19 -5 0 -10 5 -10 10 0 6 7 10 15 10 8 0 15 -3 15 -8 0 -4 25
-40 55 -80 36 -49 52 -78 48 -90 -3 -9 -2 -14 2 -9 9 8 65 -70 65 -90 0 -7 7
-13 15 -13 8 0 15 -6 15 -13 0 -8 18 -33 40 -56 22 -23 40 -46 40 -50 0 -5 20
-29 45 -53 40 -40 45 -50 49 -98 2 -34 9 -56 19 -61 9 -5 13 -17 10 -28 -3
-10 2 -32 11 -49 11 -22 13 -33 5 -38 -8 -5 -6 -10 5 -16 47 -26 -10 -74 -76
-63 -43 7 -55 18 -205 175 -31 33 -65 60 -75 60 -5 0 -7 7 -4 16 4 11 0 15
-17 13 -12 -2 -32 1 -45 5 -21 7 -22 9 -7 20 14 10 14 13 1 31 -14 18 -15 18
-16 3 0 -10 -4 -18 -9 -18 -5 0 -12 -10 -14 -22 -3 -15 -5 -8 -7 17 -1 22 -2
43 -1 48 0 4 -4 7 -9 7 -6 0 -8 -11 -4 -25 4 -15 2 -25 -5 -25 -6 0 -11 11
-11 25 0 28 -19 35 -21 8 -1 -17 -2 -17 -6 0 -3 13 -10 16 -25 11 -12 -3 -26
0 -36 10 -9 9 -31 29 -49 46 -17 16 -36 30 -42 30 -6 0 -16 9 -23 20 -7 11
-15 20 -18 20 -6 0 -168 152 -369 346 -75 72 -158 151 -185 175 -138 124 -316
335 -316 374 0 4 7 5 15 1 8 -3 15 -1 15 4 0 6 -8 10 -18 10 -20 0 -38 29 -45
74 -5 32 20 116 34 116 6 0 9 -6 7 -12 -1 -7 4 -23 11 -36 7 -13 11 -38 10
-55 -4 -63 0 -76 26 -83 14 -3 29 -12 33 -19 4 -7 16 -15 27 -17 15 -2 20 2
19 20 0 12 3 22 7 22 4 0 11 9 14 20 4 11 10 18 15 15 5 -3 12 0 16 7 5 8 10
6 15 -8 7 -17 8 -16 8 6 1 19 3 22 11 10 5 -8 10 -12 12 -10 2 3 12 22 23 44
11 21 30 43 43 49 13 6 35 34 49 61 14 28 30 54 36 57 5 4 10 19 10 34 0 14 6
29 14 32 9 4 12 14 8 32 -11 53 -8 119 6 134 21 24 33 21 53 -15z m2386 12 c0
-5 -5 -10 -11 -10 -5 0 -7 5 -4 10 3 6 8 10 11 10 2 0 4 -4 4 -10z m-139 -57
c-12 -20 -14 -14 -5 12 4 9 9 14 11 11 3 -2 0 -13 -6 -23z m326 -20 c-3 -10
-5 -2 -5 17 0 19 2 27 5 18 2 -10 2 -26 0 -35z m-426 -240 c-8 -15 -10 -15
-11 -2 0 17 10 32 18 25 2 -3 -1 -13 -7 -23z m-11 -53 c0 -5 -4 -10 -9 -10 -5
0 -15 -16 -22 -35 -7 -19 -19 -35 -25 -35 -16 0 -59 -55 -73 -93 -6 -16 -16
-25 -21 -22 -6 4 -18 1 -28 -7 -22 -17 32 51 102 130 31 34 56 67 56 72 0 6 5
10 10 10 6 0 10 -4 10 -10z m-84 -232 c-9 -12 -16 -30 -16 -40 0 -9 -4 -19 -9
-23 -6 -3 -7 6 -2 23 10 32 33 73 39 67 2 -2 -3 -14 -12 -27z m-2476 -102 c0
-7 43 -52 96 -101 314 -294 457 -436 532 -530 22 -27 68 -80 103 -117 102
-106 129 -136 129 -142 0 -4 23 -28 50 -54 28 -26 50 -51 50 -55 0 -8 112
-115 161 -155 102 -82 220 -212 191 -212 -3 0 -31 20 -61 43 -31 24 -64 48
-74 53 -51 28 -258 229 -369 359 -47 55 -100 115 -117 134 -17 19 -63 71 -103
115 -40 45 -129 137 -198 206 -229 227 -391 413 -414 474 -5 16 -4 17 9 6 8
-7 15 -18 15 -24z m2260 -6 c0 -5 -5 -10 -11 -10 -5 0 -7 5 -4 10 3 6 8 10 11
10 2 0 4 -4 4 -10z m896 -37 c-10 -10 -19 5 -10 18 6 11 8 11 12 0 2 -7 1 -15
-2 -18z m-956 -18 c-13 -14 -26 -23 -28 -20 -7 7 29 45 41 45 6 0 0 -11 -13
-25z m55 -92 c-8 -16 -31 -50 -50 -76 -25 -35 -36 -45 -41 -34 -3 9 14 40 42
76 49 63 76 82 49 34z m640 -63 c4 -6 2 -16 -3 -23 -5 -7 -12 -21 -15 -32 -2
-11 -4 -1 -3 22 1 42 8 53 21 33z m-255 -51 c-7 -11 -14 -18 -17 -15 -3 3 0
12 7 21 18 21 23 19 10 -6z m336 5 c-3 -9 -6 -24 -6 -35 0 -10 -5 -19 -11 -19
-12 0 -95 -62 -114 -85 -6 -7 -30 -22 -55 -35 -25 -13 -59 -34 -77 -47 -41
-31 -82 -42 -111 -30 -21 10 -21 11 -6 29 10 10 22 18 28 18 6 0 27 12 46 28
19 15 49 34 65 42 17 8 44 26 60 41 38 33 66 44 58 22 -9 -24 25 -2 73 46 41
42 60 51 50 25z m-898 -339 c-3 -3 -9 2 -12 12 -6 14 -5 15 5 6 7 -7 10 -15 7
-18z m822 -89 c0 -3 -4 -8 -10 -11 -5 -3 -10 -1 -10 4 0 6 5 11 10 11 6 0 10
-2 10 -4z m110 -52 c0 -8 7 -14 16 -14 42 0 -33 -94 -86 -107 -14 -3 -34 -12
-45 -18 -11 -7 -35 -15 -53 -19 -29 -5 -32 -4 -23 13 6 10 32 36 58 57 26 22
63 56 82 76 34 37 51 41 51 12z m-280 -114 c-16 -30 -45 -43 -60 -25 -10 12
-6 17 22 29 45 20 50 19 38 -4z m-433 -42 c-3 -7 -5 -2 -5 12 0 14 2 19 5 13
2 -7 2 -19 0 -25z m20 -77 c3 -23 1 -41 -4 -41 -20 0 -28 21 -25 61 5 50 21
39 29 -20z m-977 -492 c-11 -24 -20 -36 -20 -26 0 24 31 95 36 81 3 -6 -4 -31
-16 -55z m117 -229 c-5 -28 -31 -15 -54 25 -12 22 -23 49 -22 60 0 16 8 11 40
-25 21 -25 38 -52 36 -60z m188 -100 c3 -5 1 -10 -4 -10 -6 0 -11 5 -11 10 0
6 2 10 4 10 3 0 8 -4 11 -10z m85 -449 c51 -60 80 -71 45 -18 -22 35 -1 45 36
18 15 -11 32 -21 38 -21 27 0 19 -74 -12 -95 -20 -14 -20 -16 -4 -75 19 -68
22 -125 7 -115 -15 9 -190 361 -190 382 0 20 -4 24 80 -76z m658 66 c8 -6 24
-31 38 -56 13 -25 42 -75 63 -111 61 -100 103 -178 101 -186 -1 -4 2 -10 7
-13 21 -15 66 -109 102 -211 13 -36 34 -89 47 -118 13 -29 24 -56 24 -61 0 -5
7 -21 14 -37 8 -15 13 -31 10 -36 -3 -4 -1 -8 5 -8 5 0 15 -17 21 -37 6 -21
18 -52 26 -70 17 -38 18 -50 2 -59 -7 -4 -10 -4 -6 0 7 8 -4 25 -34 54 -10 9
-18 22 -18 29 0 7 -4 13 -10 13 -5 0 -10 5 -10 11 0 6 -7 17 -15 26 -8 8 -13
19 -10 24 4 5 -1 9 -9 9 -18 0 -22 -36 -5 -42 6 -2 13 -26 16 -53 3 -28 11
-53 16 -57 6 -3 11 -37 11 -75 -1 -37 4 -71 9 -74 5 -4 7 -15 4 -25 -4 -17 -5
-17 -12 3 -4 12 -14 24 -22 27 -8 3 -12 10 -8 15 3 5 1 12 -4 16 -6 3 -8 12
-4 20 3 8 1 15 -5 15 -5 0 -13 20 -16 45 -4 24 -12 47 -17 51 -6 3 -7 19 -4
34 3 15 2 31 -4 34 -7 5 -18 44 -26 96 0 3 -4 11 -9 18 -4 7 -5 19 -2 27 3 8
1 15 -5 15 -7 0 -9 11 -5 28 4 17 3 22 -2 14 -15 -23 -23 13 -16 74 6 46 4 54
-9 54 -17 0 -28 30 -24 65 1 11 -4 20 -10 20 -16 0 -45 40 -36 49 3 3 1 6 -5
6 -7 0 -12 8 -12 18 0 10 -4 22 -9 28 -21 21 -52 88 -47 100 3 8 2 14 -2 14
-10 0 -106 211 -126 277 -6 19 -4 22 11 16 10 -3 24 -11 31 -16z m-87 -37 c6
0 7 -4 4 -10 -3 -5 -1 -10 4 -10 6 0 11 -5 11 -11 0 -6 11 -37 24 -68 73 -174
98 -237 131 -336 20 -60 47 -155 60 -210 13 -55 44 -174 69 -264 56 -199 75
-318 57 -346 -12 -20 -12 -20 -7 0 3 11 1 27 -4 35 -8 13 -11 12 -16 -5 -4
-16 -14 -21 -45 -21 -43 -2 -56 21 -16 29 19 4 18 4 -5 6 -17 0 -28 7 -28 15
0 8 -6 16 -12 18 -7 3 -13 11 -13 19 -2 30 -18 89 -26 95 -5 3 -9 18 -9 34 0
16 -5 41 -10 56 l-11 27 -15 -22 c-9 -12 -14 -33 -11 -47 4 -20 1 -23 -14 -19
-20 7 -26 -9 -8 -21 6 -3 9 -19 5 -35 -3 -17 -1 -29 7 -33 9 -3 9 -5 0 -5 -18
-1 -45 30 -39 45 3 9 -2 14 -14 14 -11 0 -20 7 -20 15 0 8 -7 15 -16 15 -8 0
-13 4 -10 9 3 5 -1 11 -9 15 -8 3 -15 15 -15 26 0 30 -16 24 -30 -10 -7 -16
-18 -30 -25 -30 -9 0 -11 -8 -8 -21 4 -14 0 -26 -9 -33 -19 -14 -54 -89 -64
-136 -3 -19 -15 -46 -25 -59 -11 -13 -19 -31 -19 -40 -1 -17 -23 -51 -34 -51
-12 0 -6 48 7 53 9 4 9 7 0 14 -6 5 -13 28 -15 52 -2 27 -9 46 -17 49 -8 3
-11 0 -7 -6 4 -6 0 -25 -9 -42 -9 -17 -14 -37 -12 -43 4 -13 -32 -151 -53
-202 l-13 -30 -8 29 c-18 64 9 303 57 501 27 115 30 133 43 348 6 86 13 167
16 180 6 23 8 41 23 286 7 119 12 146 26 157 10 7 16 17 13 21 -6 10 46 9 61
-1 6 -3 18 -3 27 0 13 6 14 9 3 16 -9 7 -2 8 20 4 21 -4 32 -1 33 7 1 6 3 4 6
-5 2 -10 9 -18 14 -18z m-293 -44 c-7 -7 -19 -11 -25 -9 -18 7 -5 23 18 23 16
0 18 -2 7 -14z m22 -26 c0 -5 -5 -10 -11 -10 -5 0 -7 5 -4 10 3 6 8 10 11 10
2 0 4 -4 4 -10z m-34 -67 c2 -15 -2 -20 -12 -16 -8 3 -14 0 -14 -6 0 -6 6 -11
14 -11 8 0 14 -10 14 -25 0 -13 -4 -22 -9 -19 -5 3 -9 12 -9 20 0 8 -7 17 -15
20 -17 7 -21 35 -4 32 6 -2 14 3 17 11 3 9 0 11 -8 6 -10 -6 -12 -4 -7 9 4 10
7 23 7 29 1 19 24 -26 26 -50z m-59 -105 c-3 -8 -6 -5 -6 6 -1 11 2 17 5 13 3
-3 4 -12 1 -19z m-3 -113 c-4 -15 -1 -32 7 -42 12 -15 12 -16 -4 -10 -15 5
-16 2 -11 -21 4 -21 3 -24 -5 -12 -15 21 -10 110 6 110 9 0 11 -8 7 -25z
m-3736 -104 c14 -40 15 -51 4 -51 -8 0 -42 85 -42 103 0 17 27 -19 38 -52z
m3751 -41 c0 -10 -3 -8 -9 5 -12 27 -12 43 0 25 5 -8 9 -22 9 -30z m1101 -500
c0 -11 -2 -20 -4 -20 -2 0 -6 9 -9 20 -3 11 -1 20 4 20 5 0 9 -9 9 -20z m-636
-161 c-3 -5 -10 -7 -15 -3 -5 3 -7 10 -3 15 3 5 10 7 15 3 5 -3 7 -10 3 -15z"/>
<path d="M7961 10534 c0 -11 3 -14 6 -6 3 7 2 16 -1 19 -3 4 -6 -2 -5 -13z"/>
<path d="M7828 10864 c-9 -8 3 -44 13 -38 11 7 12 44 1 44 -5 0 -11 -3 -14 -6z"/>
<path d="M7771 10824 c0 -11 3 -14 6 -6 3 7 2 16 -1 19 -3 4 -6 -2 -5 -13z"/>
<path d="M7757 10783 c-3 -5 -7 -24 -11 -43 -3 -19 -3 -29 0 -22 3 6 10 10 15
6 5 -3 9 11 9 30 0 35 -4 44 -13 29z"/>
<path d="M7731 10678 c0 -9 -4 -25 -7 -35 -5 -14 -4 -15 5 -7 7 7 11 22 8 35
-2 13 -5 16 -6 7z"/>
<path d="M7781 10614 c0 -11 3 -14 6 -6 3 7 2 16 -1 19 -3 4 -6 -2 -5 -13z"/>
<path d="M7722 10585 c0 -16 2 -22 5 -12 2 9 2 23 0 30 -3 6 -5 -1 -5 -18z"/>
<path d="M7692 10476 c-6 -22 -9 -42 -7 -44 7 -8 26 50 22 67 -2 9 -9 -2 -15
-23z"/>
<path d="M7747 10451 c-4 -17 -3 -21 5 -13 5 5 8 16 6 23 -3 8 -7 3 -11 -10z"/>
<path d="M7723 10381 c-6 -18 -7 -31 -2 -31 12 0 22 24 17 45 -2 12 -7 7 -15
-14z"/>
<path d="M7697 10333 c-4 -3 -7 -11 -7 -17 0 -6 5 -5 12 2 6 6 9 14 7 17 -3 3
-9 2 -12 -2z"/>
<path d="M7599 10273 c-18 -32 -48 -78 -66 -102 -42 -56 -42 -71 0 -34 19 15
33 29 31 31 -1 2 9 15 22 29 13 14 24 34 24 44 0 10 7 22 17 27 17 10 28 62
13 62 -5 0 -23 -26 -41 -57z"/>
<path d="M7587 10113 c-4 -3 -7 -11 -7 -17 0 -6 5 -5 12 2 6 6 9 14 7 17 -3 3
-9 2 -12 -2z"/>
<path d="M6180 9685 c0 -8 7 -15 16 -15 14 0 14 3 4 15 -7 8 -14 15 -16 15 -2
0 -4 -7 -4 -15z"/>
<path d="M6238 9653 c7 -3 16 -2 19 1 4 3 -2 6 -13 5 -11 0 -14 -3 -6 -6z"/>
<path d="M6230 9610 c0 -5 4 -10 9 -10 5 0 11 -9 14 -21 4 -13 10 -18 17 -14
7 4 8 10 3 14 -5 3 -12 14 -16 24 -7 18 -27 24 -27 7z"/>
<path d="M7360 7010 c0 -5 5 -10 10 -10 6 0 10 5 10 10 0 6 -4 10 -10 10 -5 0
-10 -4 -10 -10z"/>
<path d="M7581 6861 c-7 -5 -9 -11 -5 -14 5 -3 15 1 22 9 14 16 5 18 -17 5z"/>
<path d="M6925 13981 c4 -8 2 -16 -4 -21 -7 -4 5 -6 26 -5 21 1 41 -3 44 -8 9
-12 42 0 35 12 -3 5 -22 12 -42 15 -19 4 -43 10 -51 13 -12 5 -14 3 -8 -6z"/>
<path d="M6485 13840 c4 -6 11 -8 16 -5 14 9 11 15 -7 15 -8 0 -12 -5 -9 -10z"/>
<path d="M7178 13819 c10 -11 94 -29 105 -22 15 9 -45 33 -80 31 -18 -1 -30
-5 -25 -9z"/>
<path d="M6430 13813 c-63 -20 -150 -83 -150 -110 0 -20 14 -16 41 13 13 14
40 34 59 45 62 33 93 65 50 52z"/>
<path d="M7292 13770 c3 -8 27 -30 54 -48 27 -17 57 -39 66 -47 9 -7 30 -21
45 -29 38 -21 75 -55 115 -107 72 -95 93 -119 106 -119 17 0 15 19 -3 26 -8 4
-15 12 -15 20 0 25 -51 98 -104 147 -85 80 -224 166 -241 149 -3 -4 -11 0 -16
8 -9 13 -10 13 -7 0z"/>
<path d="M6192 13673 c5 -25 28 -28 28 -4 0 12 -6 21 -16 21 -9 0 -14 -7 -12
-17z"/>
<path d="M6247 13673 c-4 -3 -7 -13 -7 -21 0 -12 3 -12 15 -2 8 7 15 16 15 21
0 11 -14 12 -23 2z"/>
<path d="M6267 13643 c-4 -3 -7 -11 -7 -17 0 -6 5 -5 12 2 6 6 9 14 7 17 -3 3
-9 2 -12 -2z"/>
<path d="M6487 12459 c-16 -10 -13 -14 28 -40 92 -59 246 -125 259 -111 3 3 6
0 6 -6 0 -6 10 -12 23 -14 29 -4 52 35 37 63 -6 10 -15 19 -21 19 -6 0 -7 -6
-3 -12 4 -7 -7 0 -24 16 -18 17 -32 26 -32 21 0 -4 -8 -1 -17 7 -30 26 -81 48
-126 54 -97 13 -113 14 -130 3z"/>
<path d="M6245 12302 c-37 -13 -85 -42 -85 -52 0 -4 8 -11 18 -13 12 -3 7 -7
-15 -12 -52 -12 -39 -41 34 -75 35 -17 68 -30 73 -30 6 0 20 -9 32 -20 17 -15
25 -17 41 -8 17 9 19 8 14 -6 -4 -9 -2 -16 2 -16 5 0 11 5 13 12 7 19 38 1 38
-22 0 -13 7 -20 20 -20 25 0 26 17 3 23 -14 4 -12 5 5 6 13 1 22 -5 22 -13 0
-20 21 -25 61 -16 19 4 29 8 22 9 -6 1 -23 5 -38 11 -25 9 -25 11 -9 34 8 14
16 45 16 71 0 30 4 45 12 45 23 0 93 -57 115 -94 13 -20 31 -41 42 -46 26 -15
24 -29 -3 -23 -16 4 -20 2 -13 -4 6 -6 22 -13 38 -17 31 -7 34 5 12 44 -20 35
-19 61 2 53 24 -10 -34 94 -67 117 -63 45 -130 62 -260 66 -69 2 -134 0 -145
-4z m155 -12 c0 -5 -4 -10 -10 -10 -5 0 -10 5 -10 10 0 6 5 10 10 10 6 0 10
-4 10 -10z m60 -5 c10 -13 9 -15 -9 -15 -12 0 -21 6 -21 15 0 8 4 15 9 15 5 0
14 -7 21 -15z m-157 -1 c13 -13 -13 -42 -33 -37 -11 3 -20 0 -20 -6 0 -6 -4
-11 -10 -11 -5 0 -10 9 -10 21 0 11 5 17 10 14 6 -3 17 1 26 9 17 17 27 20 37
10z m52 -5 c12 -19 -5 -23 -22 -6 -16 16 -16 17 -1 17 9 0 20 -5 23 -11z m155
-9 c0 -5 -2 -10 -4 -10 -3 0 -8 5 -11 10 -3 6 -1 10 4 10 6 0 11 -4 11 -10z
m-170 -85 c0 -11 7 -14 25 -9 22 5 25 3 25 -20 0 -24 -2 -25 -20 -16 -17 9
-20 8 -20 -10 0 -25 -14 -25 -51 1 -30 21 -38 54 -16 62 26 11 57 7 57 -8z
m100 1 c0 -11 -19 -15 -25 -6 -3 5 1 10 9 10 9 0 16 -2 16 -4z"/>
<path d="M6871 12284 c0 -11 3 -14 6 -6 3 7 2 16 -1 19 -3 4 -6 -2 -5 -13z"/>
<path d="M4762 12229 c-7 -11 -16 -17 -21 -15 -4 3 -6 -6 -3 -21 5 -26 5 -26
24 11 21 40 20 58 0 25z"/>
<path d="M4717 12065 c-15 -48 -18 -95 -8 -112 6 -10 11 -13 11 -5 0 7 5 10
10 7 11 -7 12 66 1 105 -7 23 -8 23 -14 5z"/>
<path d="M5280 12065 c1 -17 29 -49 37 -41 4 3 -3 16 -15 29 -12 12 -22 17
-22 12z"/>
<path d="M4731 11854 c0 -11 3 -14 6 -6 3 7 2 16 -1 19 -3 4 -6 -2 -5 -13z"/>
<path d="M5959 11343 c-12 -30 -25 -121 -16 -113 6 6 47 120 47 132 0 19 -21
6 -31 -19z"/>
<path d="M7330 11285 c0 -8 4 -24 9 -37 25 -64 43 -149 37 -173 -4 -15 -9 -25
-12 -22 -3 3 -25 -5 -49 -18 l-44 -23 -73 19 c-46 13 -116 21 -190 23 -85 2
-124 7 -141 19 -14 9 -29 12 -37 7 -8 -5 -19 -2 -28 6 -11 11 -17 12 -28 3
-11 -9 -18 -8 -32 8 -9 10 -26 19 -37 20 -39 1 -170 14 -193 19 -15 3 -21 1
-17 -6 3 -5 21 -10 40 -10 19 0 37 -4 40 -10 3 -5 24 -10 45 -10 21 0 51 -5
67 -11 15 -6 46 -14 67 -16 22 -2 54 -14 70 -26 22 -15 48 -22 91 -24 33 -1
74 -4 90 -6 17 -3 48 -5 70 -6 65 -2 71 -11 44 -65 -26 -53 -40 -67 -72 -72
-12 -2 -38 -8 -57 -13 -32 -8 -30 -9 27 -10 55 -1 62 -3 65 -23 4 -27 23 -34
32 -11 4 10 2 19 -3 21 -19 6 -12 22 11 22 11 0 33 13 47 28 40 44 88 69 108
56 16 -10 59 -1 91 19 18 12 65 88 58 95 -3 3 0 15 8 28 14 20 12 27 -13 76
-34 66 -79 138 -86 138 -3 0 -5 -7 -5 -15z"/>
<path d="M4782 11245 c-6 -14 -8 -33 -5 -42 5 -13 9 -7 14 22 8 48 6 53 -9 20z"/>
<path d="M6234 11175 c-17 -26 -12 -47 10 -39 8 3 44 -15 82 -40 74 -50 103
-61 55 -20 -21 17 -31 35 -31 54 0 22 -8 33 -36 49 -45 27 -60 26 -80 -4z"/>
<path d="M7575 11140 c-3 -5 1 -10 9 -10 9 0 16 5 16 10 0 6 -4 10 -9 10 -6 0
-13 -4 -16 -10z"/>
<path d="M7537 11096 c-3 -8 -18 -16 -33 -18 -31 -3 -44 -25 -21 -34 15 -5 77
41 77 58 0 13 -17 9 -23 -6z"/>
<path d="M6455 11010 c3 -5 10 -10 16 -10 5 0 9 5 9 10 0 6 -7 10 -16 10 -8 0
-12 -4 -9 -10z"/>
<path d="M6545 10970 c-3 -5 3 -10 15 -10 12 0 18 5 15 10 -3 6 -10 10 -15 10
-5 0 -12 -4 -15 -10z"/>
<path d="M10913 10315 c0 -22 2 -30 4 -17 2 12 2 30 0 40 -3 9 -5 -1 -4 -23z"/>
<path d="M8200 10330 c0 -5 5 -10 11 -10 5 0 7 5 4 10 -3 6 -8 10 -11 10 -2 0
-4 -4 -4 -10z"/>
<path d="M2404 10000 c0 -173 2 -244 3 -157 2 86 2 228 0 315 -1 86 -3 15 -3
-158z"/>
<path d="M8200 10285 c0 -8 5 -15 10 -15 6 0 10 7 10 15 0 8 -4 15 -10 15 -5
0 -10 -7 -10 -15z"/>
<path d="M6200 10090 c0 -5 5 -10 11 -10 5 0 7 5 4 10 -3 6 -8 10 -11 10 -2 0
-4 -4 -4 -10z"/>
<path d="M6200 10055 c0 -8 7 -15 16 -15 9 0 23 -8 30 -17 11 -15 13 -15 13
-3 0 22 -24 50 -43 50 -9 0 -16 -7 -16 -15z"/>
<path d="M8216 10061 c-4 -6 -4 -15 -1 -21 3 -5 -3 -30 -14 -55 -11 -24 -16
-47 -11 -50 12 -8 39 34 46 71 6 35 -8 75 -20 55z"/>
<path d="M7962 9689 c-13 -16 -19 -29 -14 -29 9 0 33 25 46 48 14 23 -9 11
-32 -19z"/>
<path d="M6555 8650 c3 -5 8 -10 11 -10 2 0 4 5 4 10 0 6 -5 10 -11 10 -5 0
-7 -4 -4 -10z"/>
<path d="M6578 8603 c6 -2 18 -2 25 0 6 3 1 5 -13 5 -14 0 -19 -2 -12 -5z"/>
<path d="M7630 8040 c0 -6 5 -10 11 -10 5 0 7 -5 3 -12 -4 -6 -3 -8 3 -5 10 6
37 -43 39 -68 0 -5 10 -28 21 -50 11 -22 22 -44 24 -50 2 -5 9 -10 16 -11 13
-2 -1 35 -53 137 -29 59 -64 96 -64 69z"/>
<path d="M7764 7800 c0 -13 4 -16 10 -10 7 7 7 13 0 20 -6 6 -10 3 -10 -10z"/>
<path d="M7807 7714 c-13 -14 -7 -23 11 -17 9 3 14 3 10 -2 -4 -4 0 -14 8 -22
8 -9 13 -20 11 -27 -2 -6 2 -17 10 -24 7 -8 11 -18 8 -23 -4 -5 -1 -9 4 -9 6
0 11 -7 11 -15 0 -8 7 -15 16 -15 12 0 7 15 -22 68 -40 75 -57 96 -67 86z"/>
<path d="M7944 7265 c3 -9 6 -21 6 -26 0 -5 7 -9 15 -9 22 0 18 23 -6 39 -19
11 -21 11 -15 -4z"/>
<path d="M8051 7124 c0 -11 3 -14 6 -6 3 7 2 16 -1 19 -3 4 -6 -2 -5 -13z"/>
</g>
</svg>
